<svg width="28" height="20" viewBox="0 0 28 20" fill="none" xmlns="http://www.w3.org/2000/svg">
    <path d="M26.7907 3.604C26.6388 3.04054 26.342 2.52667 25.9298 2.11356C25.5177 1.70044 25.0045 1.40248 24.4413 1.24933C22.3533 0.676 14 0.666667 14 0.666667C14 0.666667 5.64801 0.657333 3.55868 1.20533C2.99591 1.36553 2.48377 1.6677 2.07143 2.08285C1.65909 2.49799 1.36039 3.01216 1.20401 3.576C0.653346 5.664 0.648012 9.99467 0.648012 9.99467C0.648012 9.99467 0.642679 14.3467 1.18935 16.4133C1.49601 17.556 2.39601 18.4587 3.54001 18.7667C5.64935 19.34 13.98 19.3493 13.98 19.3493C13.98 19.3493 22.3333 19.3587 24.4213 18.812C24.9847 18.6591 25.4983 18.3618 25.9115 17.9496C26.3248 17.5373 26.6232 17.0243 26.7773 16.4613C27.3293 14.3747 27.3333 10.0453 27.3333 10.0453C27.3333 10.0453 27.36 5.692 26.7907 3.604ZM11.328 14.0067L11.3347 6.00667L18.2773 10.0133L11.328 14.0067Z" fill="#EEEEEE"/>
</svg>