<svg width="24" height="25" viewBox="0 0 24 25" fill="none" xmlns="http://www.w3.org/2000/svg">
            <path fill-rule="evenodd" clip-rule="evenodd" d="M17.3333 0.323566H6.66667C2.98477 0.323566 0 3.30834 0 6.99023V17.6569C0 21.3388 2.98477 24.3236 6.66667 24.3236H17.3333C21.0152 24.3236 24 21.3388 24 17.6569V6.99023C24 3.30834 21.0152 0.323566 17.3333 0.323566ZM21.6667 17.6569C21.6593 20.047 19.7235 21.9829 17.3333 21.9902H6.66667C4.27647 21.9829 2.34065 20.047 2.33333 17.6569V6.99023C2.34065 4.60003 4.27647 2.66422 6.66667 2.6569H17.3333C19.7235 2.66422 21.6593 4.60003 21.6667 6.99023V17.6569ZM18.3333 7.32357C19.0697 7.32357 19.6667 6.72661 19.6667 5.99023C19.6667 5.25386 19.0697 4.6569 18.3333 4.6569C17.5969 4.6569 17 5.25386 17 5.99023C17 6.72661 17.5969 7.32357 18.3333 7.32357ZM12 6.32357C8.68629 6.32357 6 9.00986 6 12.3236C6 15.6373 8.68629 18.3236 12 18.3236C15.3137 18.3236 18 15.6373 18 12.3236C18.0036 10.7312 17.3725 9.20299 16.2465 8.07701C15.1205 6.95102 13.5924 6.32002 12 6.32357ZM8.33333 12.3236C8.33333 14.3486 9.97493 15.9902 12 15.9902C14.0251 15.9902 15.6667 14.3486 15.6667 12.3236C15.6667 10.2985 14.0251 8.6569 12 8.6569C9.97493 8.6569 8.33333 10.2985 8.33333 12.3236Z" fill="#EEEEEE"/>
            </svg>