<svg width="28" height="28" viewBox="0 0 24 24" fill="none" xmlns="http://www.w3.org/2000/svg">
    <path d="M12 0C5.37258 0 0 5.37258 0 12C0 17.2156 3.43213 21.5883 8.20995 23.1962C8.62202 23.2738 8.77114 23.0071 8.77114 22.7758C8.77114 22.573 8.76441 21.969 8.7618 21.147C5.70375 21.7038 5.0082 19.3547 5.0082 19.3547C4.63141 18.2657 4.02826 17.9745 4.02826 17.9745C3.22464 17.4135 4.08778 17.4263 4.08778 17.4263C4.985 17.497 5.47918 18.3807 5.47918 18.3807C6.26564 19.7078 7.60195 19.3072 8.0918 19.0804C8.16472 18.4788 8.39275 18.0572 8.64145 17.8003C6.29524 17.5586 3.83598 16.5141 3.83598 11.788C3.83598 10.4406 4.33738 9.34727 5.15099 8.48585C5.03725 8.22119 4.66549 7.0802 5.2514 5.33114C5.2514 5.33114 6.26887 5.03898 8.74299 6.72168C9.69495 6.45175 10.726 6.32072 11.7547 6.31918C12.7833 6.32072 13.8144 6.45175 14.7676 6.72168C17.2404 5.03898 18.2579 5.33114 18.2579 5.33114C18.8438 7.0802 18.472 8.22119 18.3583 8.48585C19.1719 9.34727 19.6733 10.4406 19.6733 11.788C19.6733 16.526 17.2067 17.5536 14.8534 17.7913C15.1851 18.1173 15.482 18.7485 15.482 19.6637C15.482 21.036 15.4716 22.3983 15.4716 22.7758C15.4716 23.0107 15.6175 23.2818 16.042 23.1962C20.8167 21.5883 24 17.2141 24 12C24 5.37258 18.6274 0 12 0Z" fill="#EEEEEE"/>
</svg>
