<svg width="24" height="25" viewBox="0 0 24 25" fill="none" xmlns="http://www.w3.org/2000/svg">
            <path fill-rule="evenodd" clip-rule="evenodd" d="M2 0.323566C0.895427 0.323566 0 1.21899 0 2.32357V22.3236C0 23.4281 0.895427 24.3236 2 24.3236H22C23.1045 24.3236 24 23.4281 24 22.3236V2.32357C24 1.21899 23.1045 0.323566 22 0.323566H2ZM7.36101 5.66053C7.36852 6.93553 6.41415 7.72115 5.28164 7.71553C4.21476 7.7099 3.28476 6.86053 3.29039 5.66241C3.29601 4.53553 4.18664 3.6299 5.34352 3.65615C6.51727 3.68241 7.36852 4.54303 7.36101 5.66053ZM12.3729 9.33925H9.01295H9.01107V20.7524H12.5623V20.4861C12.5623 19.9796 12.5619 19.4729 12.5615 18.9661C12.5604 17.6144 12.5592 16.2612 12.5661 14.9098C12.568 14.5817 12.5829 14.2405 12.6673 13.9273C12.9841 12.7573 14.0361 12.0017 15.2099 12.1874C15.9636 12.3054 16.4623 12.7424 16.6723 13.453C16.8017 13.8973 16.8599 14.3754 16.8655 14.8386C16.8807 16.2354 16.8785 17.6322 16.8764 19.0292C16.8756 19.5222 16.8748 20.0156 16.8748 20.5086V20.7505H20.4373V20.4768C20.4373 19.8741 20.4371 19.2716 20.4367 18.669C20.436 17.163 20.4352 15.657 20.4392 14.1505C20.4411 13.4698 20.368 12.7986 20.2011 12.1405C19.9517 11.1617 19.4361 10.3517 18.598 9.76677C18.0036 9.35049 17.3511 9.08237 16.6217 9.05237C16.5387 9.04891 16.4549 9.04439 16.3708 9.03985C15.9979 9.01969 15.6188 8.99921 15.2623 9.07111C14.2423 9.27549 13.3461 9.74237 12.6692 10.5654C12.5905 10.6598 12.5136 10.7557 12.3988 10.8988L12.3729 10.9312V9.33925ZM3.57552 20.7561H7.10989V9.34667H3.57552V20.7561Z" fill="#EEEEEE"/>
            </svg>